<svg width="242" height="224" viewBox="0 0 242 224" fill="none" xmlns="http://www.w3.org/2000/svg">
<path fill-rule="evenodd" clip-rule="evenodd" d="M120.302 223.645C120.941 223.941 121.676 223.95 122.322 223.668L125.749 222.174L141.43 214.427L156.065 206.68L175.404 193.953L185.596 185.929L194.22 178.182L203.628 169.328L215.65 156.048L224.274 143.597L229.762 133.636L233.16 125.889L237.602 114.269L240.216 104.308C240.911 101.363 241.336 98.3608 241.486 95.3384L242 84.9408L241.749 79.6695C241.424 72.8688 240.474 66.1124 238.909 59.4862L234.989 47.8657L234.062 45.9499C231.026 39.6746 227.491 33.6535 223.49 27.9447L219.413 23.4937C216.561 20.3797 213.449 17.5142 210.111 14.9282C206.321 11.9922 202.256 9.42932 197.973 7.2754L193.959 5.25692L185.335 2.21344C180.483 0.7458 175.441 0 170.372 0H166.031C160.457 0 154.908 0.744393 149.531 2.21344L141.43 5.25692L137.248 7.47036L132.7 10.2219C130.856 11.3372 129.101 12.5911 127.447 13.9729C125.795 15.3539 124.25 16.8586 122.826 18.474L121.307 20.1976L117.125 16.0474L113.15 12.7251C112.491 12.174 111.79 11.6739 111.055 11.229L104.842 7.47036C102.234 5.99756 99.5016 4.75563 96.6768 3.75878L92.2979 2.21344C86.5712 0.74365 80.6823 0 74.77 0H70.8741C66.3602 0 61.8662 0.599128 57.5099 1.78169C55.0939 2.43754 52.7295 3.27035 50.4358 4.27337L46.5382 5.97776C43.4236 7.33972 40.4184 8.93911 37.549 10.7618C33.4658 13.3555 29.6787 16.3882 26.2551 19.8056L22.259 23.7945L18.9892 27.9981C16.295 31.4616 13.8804 35.1339 11.7682 38.9801C9.53205 43.052 7.64255 47.305 6.11971 51.6938L3.70392 58.6562L1.61321 66.9566L0.306511 73.8736C0.306511 73.8736 -0.383139 85.713 0.306511 93.2412C0.594928 96.3895 1.35187 101.265 1.35187 101.265L3.70392 111.502L6.57865 121.186L10.7601 130.593L16.5095 141.66L23.827 152.451L33.2352 163.241L44.9955 175.139L52.8357 182.056L60.6758 188.696L67.4707 194.229L75.0495 199.486L83.731 204.731L93.3432 210.554L103.013 215.534L112.944 220.237L117.125 222.174L120.302 223.645ZM32.1896 77.7471V106.799H27.7675C27.0675 106.799 26.3781 106.627 25.7594 106.3C25.3449 106.08 24.9692 105.795 24.6472 105.454L23.9042 104.667C23.6787 104.428 23.4732 104.172 23.2895 103.899C22.6177 102.904 22.2587 101.73 22.2587 100.529V84.2723C22.2587 83.0797 22.5785 81.909 23.1848 80.882C23.4378 80.4535 23.7379 80.0547 24.0796 79.6929L24.8998 78.8246C25.2262 78.4789 25.6209 78.2048 26.0587 78.0193C26.4829 77.8397 26.9389 77.7471 27.3996 77.7471H32.1896ZM42.1292 115.125C40.9234 114.019 40.0168 112.626 39.4938 111.075C39.1565 110.075 38.9844 109.027 38.9844 107.972V92.1345V76.2204C38.9844 75.2159 39.1482 74.2182 39.4693 73.2664L39.5826 72.9304C40.0462 71.5563 40.876 70.3348 41.9826 69.3975C43.4215 68.1788 45.2461 67.5099 47.1318 67.5099H49.5595C50.0697 67.5099 50.4834 67.0963 50.4834 66.586V59.5978C50.4834 58.4332 50.7586 57.2851 51.2865 56.247L51.9034 55.0341C52.1753 54.4995 52.5112 54.0001 52.9037 53.5467L54.4238 51.7911C54.9298 51.2068 55.5243 50.7054 56.1857 50.3052L57.5231 49.4962C58.3957 48.9682 59.3682 48.6266 60.3793 48.4928L61.9888 48.2798C62.6779 48.1886 63.3765 48.1951 64.0638 48.299L65.3418 48.4923C66.2307 48.6268 67.0877 48.9223 67.8706 49.3643L69.7654 50.4342C70.3237 50.7495 70.8387 51.1361 71.2973 51.5842L72.9714 53.2203C73.6533 53.8867 74.1998 54.6787 74.5808 55.5527L74.9561 56.4135C75.3623 57.3452 75.5719 58.3508 75.5719 59.3672V92.5495V125.615C75.5719 126.707 75.3302 127.785 74.8641 128.772L74.5062 129.529C74.1734 130.234 73.7313 130.882 73.1961 131.448L71.517 133.226C70.9148 133.863 70.2039 134.389 69.4177 134.777L67.4713 135.739C66.9498 135.996 66.3998 136.192 65.8326 136.32L64.5604 136.609C63.5499 136.838 62.5024 136.852 61.486 136.651L59.9082 136.337C59.204 136.198 58.5239 135.956 57.8893 135.62L56.5446 134.908C55.6494 134.434 54.8612 133.782 54.2288 132.99L52.7075 131.087C52.4448 130.758 52.2107 130.408 52.0076 130.039L51.401 128.938C50.799 127.846 50.4834 126.619 50.4834 125.371V117.96C50.4834 117.449 50.0697 117.036 49.5595 117.036H45.0504C44.5107 117.036 43.9906 116.833 43.5929 116.468L42.1292 115.125ZM167.918 56.4135C167.512 57.3452 167.302 58.3507 167.302 59.3672V125.615C167.302 126.707 167.544 127.785 168.01 128.772L168.574 129.966C168.771 130.383 169.006 130.781 169.278 131.154L170.354 132.635C171.095 133.655 172.084 134.468 173.227 134.997L175.665 136.127L179.118 136.736C179.946 136.882 180.792 136.886 181.621 136.747L183.153 136.491C184.576 136.253 185.899 135.604 186.957 134.623L187.425 134.19L189.963 131.695C190.702 130.968 191.28 130.095 191.659 129.131L191.877 128.578C192.216 127.715 192.391 126.797 192.391 125.871V117.96C192.391 117.449 192.804 117.036 193.314 117.036H199.371C200.083 117.036 200.761 116.728 201.228 116.191L203.2 113.93C203.481 113.608 203.673 113.219 203.758 112.8L204.358 109.834C204.394 109.655 204.41 109.474 204.406 109.292L203.638 73.7887C203.632 73.4792 203.567 73.1736 203.447 72.8882L202.794 71.3337C202.655 71.002 202.445 70.7048 202.178 70.4631L199.628 68.1492C199.175 67.7378 198.585 67.5099 197.973 67.5099H193.314C192.804 67.5099 192.391 67.0963 192.391 66.586V60.0283C192.391 58.5914 191.972 57.1857 191.185 55.9831L190.038 54.2293L188.305 52.0269C187.724 51.2885 187.007 50.6677 186.193 50.1978L185.701 49.9138C184.94 49.4742 184.106 49.1739 183.24 49.027L179.473 48.389C178.512 48.2262 177.528 48.2573 176.58 48.4805C175.972 48.6234 175.386 48.8434 174.834 49.1353L172.866 50.1773C171.954 50.6599 171.154 51.3278 170.516 52.1382L169.458 53.4826C169.067 53.9784 168.742 54.5221 168.49 55.1004L167.918 56.4135ZM210.731 77.7471C210.561 77.7471 210.423 77.885 210.423 78.0551V106.183C210.423 106.523 210.699 106.799 211.039 106.799H214.485C215.253 106.799 216.012 106.634 216.711 106.317C217.22 106.086 217.69 105.777 218.104 105.401L218.65 104.906C219.086 104.51 219.451 104.044 219.731 103.526C220.14 102.768 220.354 101.921 220.354 101.059V83.8824C220.354 82.9396 220.145 82.0085 219.742 81.156L219.703 81.0724C219.442 80.5191 219.094 80.0106 218.674 79.5658C217.895 78.7404 216.889 78.1616 215.784 77.9016C215.348 77.799 214.901 77.7471 214.453 77.7471H210.731ZM83.9814 101.265C83.8113 101.265 83.6734 101.403 83.6734 101.573V126.133C83.6734 126.878 83.8815 127.608 84.2741 128.242L88.9664 135.812C89.0962 136.021 89.2451 136.218 89.4111 136.4L96.479 144.15L105.103 152.451L113.989 160.198L120.084 164.426C120.967 165.038 122.146 165.008 122.996 164.35L128.362 160.198L137.509 152.451L146.133 144.15L153.604 136.505C153.849 136.254 154.061 135.971 154.232 135.665L158.427 128.185C158.763 127.587 158.939 126.913 158.939 126.227V101.573C158.939 101.403 158.801 101.265 158.631 101.265H83.9814ZM157.633 75.8103H83.6737V68.2258C83.6737 65.5799 84.3562 62.9788 85.6554 60.6738C86.2039 59.7005 86.8569 58.7899 87.6027 57.9581L87.6602 57.894C89.8022 55.505 92.6066 53.8074 95.7165 53.0172L97.9666 52.4454C101.931 51.4383 106.087 51.4698 110.035 52.537L110.154 52.5692L112.513 53.3376C114.328 53.9287 116.043 54.7889 117.603 55.8894L120.297 57.7045C120.405 57.7774 120.547 57.7742 120.652 57.6965L123.091 55.8894C124.499 54.793 126.107 53.98 127.825 53.4952L131.107 52.5692L131.648 52.423C135.316 51.4316 139.181 51.4316 142.849 52.423L143.634 52.6353C147.468 53.6717 150.88 55.8871 153.386 58.9684C156.133 62.3459 157.633 66.5666 157.633 70.9202V75.8103Z" fill="#018A5E"/>
</svg>
