<svg width="212" height="87" viewBox="0 0 212 87" fill="none" xmlns="http://www.w3.org/2000/svg">
<path d="M8.35526 54.3545C7.46478 54.3545 6.70151 54.0577 6.06545 53.464C5.4718 52.828 5.17497 52.0647 5.17497 51.1742V14.4737C5.17497 13.5832 5.4718 12.8412 6.06545 12.2475C6.70151 11.6114 7.46478 11.2934 8.35526 11.2934H33.734C34.6244 11.2934 35.3665 11.6114 35.9602 12.2475C36.5538 12.8412 36.8506 13.5832 36.8506 14.4737C36.8506 15.3218 36.5538 16.0638 35.9602 16.6999C35.3665 17.336 34.6244 17.654 33.734 17.654H11.5355V28.5942H28.4547C29.3452 28.5942 30.0872 28.9122 30.6809 29.5483C31.2745 30.1843 31.5714 30.9476 31.5714 31.8381C31.5714 32.6862 31.2745 33.4282 30.6809 34.0643C30.0872 34.6579 29.3452 34.9548 28.4547 34.9548H11.5355V51.1742C11.5355 52.0647 11.2175 52.828 10.5815 53.464C9.98781 54.0577 9.24574 54.3545 8.35526 54.3545ZM45.2501 19.8802C44.4444 19.8802 43.7235 19.5622 43.0875 18.9261C42.4938 18.2901 42.2182 17.5692 42.2606 16.7635L42.3242 14.4101C42.3666 13.6044 42.6846 12.9048 43.2783 12.3111C43.8719 11.7175 44.5716 11.4206 45.3773 11.4206C46.183 11.4206 46.8826 11.7387 47.4763 12.3747C48.1123 13.0108 48.4092 13.7104 48.3668 14.4737L48.3032 16.8907C48.2607 17.7388 47.9427 18.4597 47.3491 19.0533C46.7978 19.6046 46.0982 19.8802 45.2501 19.8802ZM44.932 54.2909C44.084 54.2909 43.3419 53.9941 42.7058 53.4004C42.1122 52.7644 41.8154 52.0223 41.8154 51.1742L42.1334 25.8591C42.1334 25.0111 42.4302 24.2902 43.0239 23.6965C43.6599 23.0605 44.402 22.7425 45.2501 22.7425C46.1406 22.7425 46.8826 23.0605 47.4763 23.6965C48.0699 24.2902 48.3668 25.0111 48.3668 25.8591L48.0487 51.1742C48.0487 52.0223 47.7307 52.7644 47.0946 53.4004C46.501 53.9941 45.7801 54.2909 44.932 54.2909ZM62.8157 54.3545C62.01 54.3545 61.2892 54.0577 60.6531 53.464C60.0594 52.8704 59.7626 52.1707 59.7626 51.365V28.6578H54.7378C53.8897 28.6578 53.1688 28.361 52.5752 27.7673C51.9815 27.1312 51.6847 26.4104 51.6847 25.6047C51.6847 24.6718 52.0027 23.9298 52.6388 23.3785C53.2748 22.7849 54.0169 22.488 54.865 22.488H59.7626V15.6822C59.7626 14.8765 60.0594 14.1557 60.6531 13.5196C61.2468 12.8836 61.9676 12.5655 62.8157 12.5655C63.7062 12.5655 64.427 12.8836 64.9783 13.5196C65.5719 14.1133 65.8688 14.8341 65.8688 15.6822V22.488H71.2753C72.1233 22.488 72.8442 22.7849 73.4379 23.3785C74.0315 23.9722 74.3283 24.7142 74.3283 25.6047C74.3283 26.4104 74.0315 27.1312 73.4379 27.7673C72.8442 28.361 72.1233 28.6578 71.2753 28.6578H65.8688V51.365C65.8688 52.1707 65.5719 52.8704 64.9783 53.464C64.3846 54.0577 63.6638 54.3545 62.8157 54.3545ZM77.8982 54.2909C76.7533 54.2909 75.884 53.9729 75.2904 53.3368C74.7391 52.7008 74.4635 51.8315 74.4635 50.729C74.4635 50.0081 74.7179 49.3297 75.2268 48.6936L100.287 17.5904H78.6615C77.8134 17.5904 77.0713 17.2724 76.4353 16.6363C75.7992 16.0002 75.4812 15.2158 75.4812 14.2829C75.4812 13.4348 75.7992 12.6927 76.4353 12.0567C77.0713 11.3782 77.8134 11.039 78.6615 11.039H106.076C107.051 11.039 107.857 11.3782 108.493 12.0567C109.171 12.6927 109.51 13.4772 109.51 14.4101C109.51 14.9189 109.468 15.3006 109.383 15.555C109.298 15.8094 109.15 16.0851 108.938 16.3819L83.6863 47.8031H105.312C106.203 47.8031 106.945 48.1211 107.538 48.7572C108.175 49.3509 108.493 50.1141 108.493 51.047C108.493 51.9375 108.175 52.7008 107.538 53.3368C106.945 53.9729 106.203 54.2909 105.312 54.2909H77.8982ZM125.806 54.2909C123.389 54.2909 121.163 53.6336 119.127 52.3191C117.134 51.0046 115.565 49.2236 114.42 46.9762C113.275 44.6864 112.703 42.2058 112.703 39.5344C112.703 36.5237 113.381 33.725 114.738 31.1384C116.095 28.5094 117.919 26.4316 120.208 24.905C122.498 23.3361 124.958 22.5516 127.587 22.5516C130.004 22.5516 132.209 23.2301 134.202 24.587C136.237 25.9439 137.827 27.7461 138.972 29.9935C140.159 32.2409 140.753 34.6579 140.753 37.2446C140.753 40.2976 140.075 43.1387 138.718 45.7677C137.361 48.3544 135.516 50.4322 133.184 52.0011C130.894 53.5276 128.435 54.2909 125.806 54.2909ZM125.806 48.5664C127.29 48.5664 128.71 48.0575 130.067 47.0398C131.424 46.0222 132.506 44.6652 133.311 42.9691C134.117 41.2729 134.52 39.4708 134.52 37.5626C134.52 35.9512 134.202 34.4459 133.566 33.0466C132.93 31.6049 132.06 30.4599 130.958 29.6119C129.855 28.7214 128.647 28.2762 127.332 28.2762C125.848 28.2762 124.449 28.8062 123.134 29.8663C121.862 30.884 120.845 32.2621 120.081 34.0007C119.318 35.6968 118.936 37.5202 118.936 39.4708C118.936 41.3789 119.254 43.0115 119.89 44.3684C120.569 45.7253 121.417 46.7642 122.435 47.4851C123.495 48.206 124.618 48.5664 125.806 48.5664ZM150.65 54.2909C149.845 54.2909 149.124 53.9941 148.488 53.4004C147.894 52.8068 147.597 52.1283 147.597 51.365V25.5411C147.597 24.693 147.915 23.9722 148.551 23.3785C149.187 22.7849 149.929 22.488 150.777 22.488C151.583 22.488 152.262 22.7849 152.813 23.3785C153.407 23.9722 153.703 24.693 153.703 25.5411V30.3751C154.891 27.8309 156.396 25.9015 158.219 24.587C160.043 23.2301 162.036 22.5516 164.198 22.5516C166.573 22.5516 168.46 23.1029 169.859 24.2054C171.259 25.3079 172.276 27.1312 172.912 29.6755C173.548 32.1773 173.866 35.6544 173.866 40.1068L173.803 51.2378C173.803 52.0435 173.527 52.7644 172.976 53.4004C172.425 53.9941 171.725 54.2909 170.877 54.2909C170.071 54.2909 169.35 53.9941 168.714 53.4004C168.121 52.7644 167.824 52.0647 167.824 51.3014V40.7429C167.824 37.4354 167.675 34.8912 167.379 33.1102C167.082 31.3292 166.637 30.1207 166.043 29.4847C165.449 28.8062 164.644 28.467 163.626 28.467C162.354 28.467 161.082 29.0182 159.809 30.1207C158.537 31.1808 157.35 32.7074 156.248 34.7003C155.272 36.4389 154.594 38.135 154.212 39.7888C153.831 41.4425 153.64 43.4355 153.64 45.7677V51.1106C153.64 52.0435 153.364 52.8068 152.813 53.4004C152.304 53.9941 151.583 54.2909 150.65 54.2909ZM195.872 54.2909C192.861 54.2909 190.147 53.6548 187.73 52.3827C185.356 51.0682 183.49 49.2236 182.133 46.849C180.776 44.432 180.098 41.591 180.098 38.3259C180.098 35.6544 180.691 33.1102 181.879 30.6932C183.108 28.2337 184.805 26.262 186.967 24.7778C189.172 23.2937 191.674 22.5516 194.473 22.5516C197.059 22.5516 199.264 23.0817 201.088 24.1418C202.953 25.1595 204.353 26.3892 205.286 27.8309C206.219 29.2726 206.685 30.566 206.685 31.7109C206.685 32.2621 206.515 32.7922 206.176 33.301C205.837 33.8099 205.349 34.2551 204.713 34.6367L187.667 44.432C188.26 45.7465 189.299 46.7642 190.784 47.4851C192.31 48.206 194.006 48.5664 195.872 48.5664C198.331 48.5664 200.43 47.6547 202.169 45.8313C202.847 45.1529 203.547 44.8136 204.268 44.8136C205.116 44.8136 205.816 45.0893 206.367 45.6405C206.961 46.1918 207.257 46.8702 207.257 47.6759C207.257 48.3544 207.003 48.9904 206.494 49.5841C205.307 50.8986 203.717 52.0223 201.724 52.9552C199.773 53.8457 197.823 54.2909 195.872 54.2909ZM200.388 30.9476C199.879 30.0571 199.158 29.3999 198.225 28.9758C197.292 28.5094 196.19 28.2762 194.918 28.2762C192.501 28.2762 190.465 29.103 188.812 30.7568C187.2 32.4105 186.268 34.4459 186.013 36.8629C185.928 37.499 185.886 38.2623 185.886 39.1527L200.388 30.9476Z" fill="#6B3E23"/>
<path d="M55.7018 85.7367C53.8784 85.7367 52.2883 85.3338 50.9313 84.5281C49.5956 83.7225 48.6521 82.7366 48.1009 81.5705C47.8677 81.0616 47.751 80.6482 47.751 80.3302C47.751 79.8849 47.9101 79.5139 48.2281 79.2171C48.5461 78.899 48.9278 78.74 49.373 78.74C49.7546 78.74 50.0833 78.846 50.3589 79.0581C50.6345 79.2701 50.8359 79.5563 50.9631 79.9167C51.3024 80.8284 51.9278 81.5281 52.8395 82.0157C53.7512 82.5034 54.7265 82.7472 55.7654 82.7472C57.0799 82.7472 58.1612 82.4398 59.0093 81.8249C59.8785 81.1888 60.3132 80.415 60.3132 79.5033C60.3132 78.8036 59.9634 78.1676 59.2637 77.5951C58.5852 77.0227 57.4191 76.5032 55.7654 76.0368C53.624 75.4431 51.9384 74.6799 50.7087 73.747C49.479 72.7929 48.8641 71.489 48.8641 69.8352C48.8641 68.7115 49.161 67.715 49.7546 66.8457C50.3695 65.9553 51.2388 65.2662 52.3625 64.7786C53.4862 64.2909 54.8007 64.0471 56.306 64.0471C58.4686 64.0471 60.1648 64.4711 61.3945 65.3192C62.6454 66.1673 63.2709 67.3016 63.2709 68.7221C63.2709 69.1886 63.1224 69.5808 62.8256 69.8988C62.5288 70.2169 62.1578 70.3759 61.7125 70.3759C61.3309 70.3759 61.0022 70.2487 60.7266 69.9942C60.451 69.7398 60.292 69.4218 60.2496 69.0401C60.1648 68.4465 59.7725 67.9588 59.0729 67.5772C58.3732 67.1744 57.4509 66.973 56.306 66.973C54.8855 66.973 53.8042 67.2168 53.0621 67.7044C52.3201 68.1709 51.949 68.8069 51.949 69.6126C51.949 70.3547 52.3307 70.9801 53.0939 71.489C53.8572 71.9978 55.1081 72.5067 56.8467 73.0155C58.9881 73.6304 60.61 74.4572 61.7125 75.4961C62.815 76.535 63.3663 77.8177 63.3663 79.3443C63.3663 80.5316 63.0164 81.6129 62.3168 82.5882C61.6171 83.5635 60.6736 84.3373 59.4863 84.9098C58.3202 85.461 57.0587 85.7367 55.7018 85.7367ZM70.4551 85.7367C70.031 85.7367 69.66 85.5776 69.342 85.2596C69.0451 84.9416 68.8967 84.5812 68.8967 84.1783C68.8967 84.0087 68.9073 83.8709 68.9285 83.7649C68.9709 83.6377 69.0451 83.4787 69.1512 83.2878L71.918 78.6446L64.8578 66.5595C64.6881 66.2415 64.6033 65.9341 64.6033 65.6372C64.6033 65.2132 64.7518 64.8528 65.0486 64.5559C65.3666 64.2379 65.7482 64.0789 66.1935 64.0789C66.4479 64.0789 66.6917 64.1531 66.925 64.3015C67.1794 64.4287 67.3808 64.6195 67.5292 64.874L73.7626 75.5279L80.0913 64.8422C80.2398 64.5877 80.4306 64.3969 80.6638 64.2697C80.9182 64.1425 81.1832 64.0789 81.4589 64.0789C81.8617 64.0789 82.2221 64.2379 82.5402 64.5559C82.8582 64.8528 83.0172 65.2132 83.0172 65.6372C83.0172 65.8281 82.996 65.9871 82.9536 66.1143C82.9112 66.2415 82.8264 66.4217 82.6992 66.6549L71.8226 84.9416C71.6742 85.196 71.4728 85.3974 71.2183 85.5458C70.9851 85.673 70.7307 85.7367 70.4551 85.7367ZM91.5732 85.7367C89.7498 85.7367 88.1597 85.3338 86.8027 84.5281C85.467 83.7225 84.5235 82.7366 83.9723 81.5705C83.7391 81.0616 83.6225 80.6482 83.6225 80.3302C83.6225 79.8849 83.7815 79.5139 84.0995 79.2171C84.4175 78.899 84.7992 78.74 85.2444 78.74C85.626 78.74 85.9547 78.846 86.2303 79.0581C86.5059 79.2701 86.7073 79.5563 86.8345 79.9167C87.1738 80.8284 87.7992 81.5281 88.7109 82.0157C89.6226 82.5034 90.5979 82.7472 91.6368 82.7472C92.9513 82.7472 94.0326 82.4398 94.8807 81.8249C95.75 81.1888 96.1846 80.415 96.1846 79.5033C96.1846 78.8036 95.8348 78.1676 95.1351 77.5951C94.4566 77.0227 93.2905 76.5032 91.6368 76.0368C89.4954 75.4431 87.8098 74.6799 86.5801 73.747C85.3504 72.7929 84.7356 71.489 84.7356 69.8352C84.7356 68.7115 85.0324 67.715 85.626 66.8457C86.2409 65.9553 87.1102 65.2662 88.2339 64.7786C89.3576 64.2909 90.6721 64.0471 92.1774 64.0471C94.34 64.0471 96.0362 64.4711 97.2659 65.3192C98.5168 66.1673 99.1423 67.3016 99.1423 68.7221C99.1423 69.1886 98.9938 69.5808 98.697 69.8988C98.4002 70.2169 98.0292 70.3759 97.5839 70.3759C97.2023 70.3759 96.8737 70.2487 96.598 69.9942C96.3224 69.7398 96.1634 69.4218 96.121 69.0401C96.0362 68.4465 95.6439 67.9588 94.9443 67.5772C94.2446 67.1744 93.3223 66.973 92.1774 66.973C90.7569 66.973 89.6756 67.2168 88.9335 67.7044C88.1915 68.1709 87.8204 68.8069 87.8204 69.6126C87.8204 70.3547 88.2021 70.9801 88.9653 71.489C89.7286 71.9978 90.9795 72.5067 92.7181 73.0155C94.8595 73.6304 96.4814 74.4572 97.5839 75.4961C98.6864 76.535 99.2377 77.8177 99.2377 79.3443C99.2377 80.5316 98.8878 81.6129 98.1882 82.5882C97.4885 83.5635 96.545 84.3373 95.3577 84.9098C94.1916 85.461 92.9301 85.7367 91.5732 85.7367ZM108.68 85.7367C108.256 85.7367 107.885 85.5882 107.567 85.2914C107.249 84.9734 107.09 84.6024 107.09 84.1783V67.4182H102.097C101.673 67.4182 101.302 67.2592 100.984 66.9412C100.687 66.6231 100.538 66.2521 100.538 65.8281C100.538 65.3828 100.687 65.0118 100.984 64.715C101.302 64.4181 101.673 64.2697 102.097 64.2697H115.263C115.708 64.2697 116.079 64.4181 116.376 64.715C116.673 65.0118 116.821 65.3828 116.821 65.8281C116.821 66.2733 116.673 66.6549 116.376 66.973C116.079 67.2698 115.708 67.4182 115.263 67.4182H110.238V84.1783C110.238 84.6024 110.079 84.9734 109.761 85.2914C109.464 85.5882 109.104 85.7367 108.68 85.7367ZM121.001 85.5458C120.556 85.5458 120.174 85.3974 119.856 85.1006C119.559 84.7826 119.411 84.4009 119.411 83.9557V65.8281C119.411 65.3828 119.559 65.0118 119.856 64.715C120.174 64.3969 120.556 64.2379 121.001 64.2379H133.69C134.135 64.2379 134.506 64.3969 134.803 64.715C135.1 65.0118 135.248 65.3828 135.248 65.8281C135.248 66.2733 135.1 66.6549 134.803 66.973C134.506 67.2698 134.135 67.4182 133.69 67.4182H122.559V72.8883H132.227C132.672 72.8883 133.043 73.0367 133.34 73.3335C133.637 73.6304 133.786 74.0014 133.786 74.4466C133.786 74.8919 133.637 75.2735 133.34 75.5915C133.043 75.8884 132.672 76.0368 132.227 76.0368H122.559V82.3655H133.627C134.072 82.3655 134.443 82.5246 134.74 82.8426C135.036 83.1394 135.185 83.5105 135.185 83.9557C135.185 84.4009 135.036 84.7826 134.74 85.1006C134.443 85.3974 134.072 85.5458 133.627 85.5458H121.001ZM138.263 85.7367C137.796 85.7367 137.425 85.5988 137.149 85.3232C136.895 85.0476 136.768 84.7402 136.768 84.4009C136.768 84.0617 136.81 83.7119 136.895 83.3514L140.839 65.3192C140.923 64.9376 141.104 64.6407 141.379 64.4287C141.655 64.1955 141.994 64.0789 142.397 64.0789C143.139 64.0789 143.627 64.4393 143.86 65.1602L148.344 79.2489L153.433 65.0966C153.687 64.4181 154.217 64.0789 155.023 64.0789C155.383 64.0789 155.68 64.1955 155.913 64.4287C156.168 64.6407 156.337 64.9376 156.422 65.3192L160.461 83.3196C160.567 83.8073 160.62 84.1253 160.62 84.2737C160.62 84.6766 160.472 85.0264 160.175 85.3232C159.878 85.5988 159.507 85.7367 159.062 85.7367C158.638 85.7367 158.298 85.6306 158.044 85.4186C157.789 85.1854 157.62 84.8886 157.535 84.5281L154.609 71.2345L149.712 84.719C149.606 85.037 149.415 85.2914 149.139 85.4822C148.863 85.6518 148.556 85.7367 148.217 85.7367C147.475 85.7367 146.987 85.3762 146.754 84.6554L142.62 71.7116L139.821 84.4963C139.736 84.878 139.556 85.1854 139.28 85.4186C139.005 85.6306 138.665 85.7367 138.263 85.7367Z" fill="#6B3E23"/>
</svg>
