<svg width="30" height="30" viewBox="0 0 30 30" fill="none" xmlns="http://www.w3.org/2000/svg">
<g clip-path="url(#clip0_1166_312)">
<path d="M24.1079 22.3406C23.1376 20.6625 21.3798 20.1422 20.4188 19.9781C19.9595 19.9031 19.561 19.7578 19.2423 19.5469C18.586 19.111 18.3282 18.5766 18.2298 18.2016C19.1673 17.1141 19.9829 15.3375 19.8798 12.4688C20.4892 11.25 20.297 9.9094 20.2876 9.83909C20.2642 9.69846 20.1798 9.57659 20.0579 9.50628C19.9964 9.47283 19.928 9.45415 19.858 9.45171C19.788 9.44927 19.7185 9.46314 19.6548 9.49221C19.0642 9.75003 18.1829 9.40784 17.8829 9.24846C13.9501 7.29846 11.9157 9.52503 11.4657 10.1157C11.0392 10.3172 10.0735 11.0532 10.1767 13.5657C10.1767 13.636 10.1954 14.4188 10.4532 15.4125C10.711 16.4063 11.1985 17.6157 12.1454 18.5438C12.0423 18.8907 11.7938 19.4297 11.161 19.8563C10.847 20.0625 10.4579 20.2078 10.0079 20.2875C9.24385 20.4141 7.37354 20.8969 6.3751 22.65C6.01416 23.2828 5.82666 24.0422 5.82666 24.8578V29.1281C5.82666 29.6063 6.21572 30 6.69385 30H23.7985C24.2767 30 24.6657 29.6063 24.6657 29.1281V24.5438C24.6657 23.7282 24.4735 22.9688 24.1079 22.3406ZM18.6845 20.2594L17.0392 22.6031L16.3313 21.4641L18.2251 19.8844C18.3563 20.0156 18.511 20.1375 18.6845 20.2594ZM15.061 23.5688H15.4313L15.9235 26.8782L15.2438 27.4547L14.5688 26.8782L15.061 23.5688ZM14.7938 22.0406H15.6188L15.6751 22.125L15.497 22.6594H14.9954L14.7938 22.0406ZM15.4454 21.0188C15.4032 21.0516 15.3751 21.0891 15.3517 21.1313H15.0142C14.9896 21.0887 14.9579 21.0506 14.9204 21.0188L12.8298 19.275C12.8485 19.2328 12.8767 19.186 12.8907 19.1438C12.9235 19.1672 12.9517 19.1906 12.9845 19.2094C13.6002 19.5942 14.3115 19.7988 15.0376 19.8C15.8532 19.8 16.6688 19.5375 17.3579 19.0219C17.4095 18.9797 17.461 18.9375 17.5173 18.8953C17.5548 18.9844 17.6017 19.0782 17.6579 19.1719L15.4454 21.0188ZM11.086 13.5516C11.086 13.5469 11.0813 13.5469 11.0813 13.5422C11.0813 13.5422 11.086 13.5422 11.086 13.5375C10.9876 11.2641 11.8688 10.9313 11.8688 10.9313C11.9813 10.9032 12.0798 10.8282 12.1454 10.7297C12.2063 10.6266 13.7673 8.2219 17.4657 10.0547C17.5126 10.0782 18.4595 10.5797 19.4157 10.4813C19.411 11.0485 19.2938 11.986 18.6563 12.6563C18.0235 13.3219 16.9923 13.5938 15.6048 13.4578C15.1642 13.4016 13.9548 13.1016 13.622 12.4172C13.5908 12.351 13.5437 12.2936 13.4847 12.2502C13.4258 12.2068 13.357 12.1788 13.2845 12.1688C13.2113 12.1573 13.1364 12.1636 13.0662 12.1873C12.996 12.2109 12.9326 12.2512 12.8813 12.3047C12.8673 12.3235 12.572 12.6422 12.4407 13.2141L12.1548 13.0032C12.0695 12.9373 11.9633 12.9044 11.8557 12.9105C11.7481 12.9165 11.6463 12.961 11.5688 13.036C11.5501 13.0547 11.3438 13.2657 11.0907 13.6828C11.086 13.6032 11.086 13.5516 11.086 13.5516ZM11.3767 15.3141C11.5595 14.6953 11.7938 14.2547 11.9673 13.9969L12.5907 14.4657C12.6628 14.5201 12.7494 14.5517 12.8396 14.5566C12.9298 14.5615 13.0193 14.5394 13.0969 14.4931C13.1744 14.4468 13.2363 14.3784 13.2747 14.2967C13.3132 14.215 13.3264 14.1236 13.3126 14.0344C13.2798 13.8141 13.2892 13.6266 13.3173 13.4672C14.1142 14.161 15.3235 14.3391 15.5017 14.3625C16.9735 14.5031 18.136 14.25 18.9657 13.5985C18.811 16.2282 17.747 17.5922 16.8142 18.2953C16.3353 18.655 15.7586 18.8609 15.1602 18.886C14.5618 18.9111 13.9699 18.7542 13.4626 18.436C12.2626 17.6907 11.672 16.3875 11.3767 15.3141ZM12.3235 20.0391L14.0345 21.4641L13.3267 22.6031L11.836 20.4797C12.0235 20.3344 12.1876 20.1891 12.3235 20.0391ZM23.7563 29.0907H6.73603V24.8578C6.73603 24.2016 6.88135 23.5922 7.1626 23.1C7.96885 21.6891 9.5251 21.2906 10.1579 21.1828C10.4767 21.1266 10.772 21.0422 11.0438 20.9297L12.9751 23.686C13.0595 23.8078 13.2001 23.8828 13.3454 23.8828H13.3595C13.5142 23.8782 13.6548 23.7985 13.7345 23.6672L14.1517 22.9969L14.2032 23.1563L13.636 26.9907C13.6126 27.15 13.6688 27.3047 13.7907 27.4031L14.9532 28.3969C14.972 28.4157 15.0001 28.425 15.0235 28.4391C15.0423 28.4485 15.0563 28.4625 15.0751 28.4672C15.1313 28.4906 15.1876 28.5047 15.2438 28.5047H15.2485C15.3048 28.5047 15.361 28.4906 15.4173 28.4672C15.436 28.4625 15.4501 28.4485 15.4688 28.4391C15.4923 28.425 15.5204 28.4157 15.5392 28.3969L16.7017 27.4031C16.7614 27.354 16.8071 27.29 16.8343 27.2176C16.8614 27.1452 16.869 27.0669 16.8563 26.9907L16.2892 23.1563L16.2985 23.1328L16.6313 23.6672C16.711 23.7985 16.8517 23.8782 17.0063 23.8828H17.0157C17.1657 23.8828 17.3063 23.8078 17.3907 23.686L19.5001 20.6766C19.7438 20.761 19.997 20.8313 20.2688 20.8735C21.0704 21.0094 22.5376 21.4406 23.3204 22.8C23.6063 23.2875 23.7563 23.8922 23.7563 24.5438V29.0907Z" fill="#2A2F63"/>
<path d="M15.675 22.125L15.4969 22.6594H14.9953L14.7937 22.0407H15.6187L15.675 22.125ZM15.9234 26.8782L15.2438 27.4547L14.5687 26.8782L15.0609 23.5688H15.4312L15.9234 26.8782ZM14.0344 21.4641L13.3266 22.6032L11.8359 20.4797C12.0234 20.3344 12.1875 20.1891 12.3234 20.0391L14.0344 21.4641ZM18.6844 20.2594L17.0391 22.6032L16.3313 21.4641L18.225 19.8844C18.3563 20.0156 18.5109 20.1375 18.6844 20.2594Z" fill="#EDECED"/>
<path d="M23.7562 24.5438V29.0906H6.73584V24.8578C6.73584 24.2016 6.88115 23.5922 7.1624 23.1C7.96865 21.6891 9.5249 21.2906 10.1577 21.1828C10.4765 21.1266 10.7718 21.0422 11.0437 20.9297L12.9749 23.6859C13.0593 23.8078 13.1999 23.8828 13.3452 23.8828H13.3593C13.514 23.8781 13.6546 23.7985 13.7343 23.6672L14.1515 22.9969L14.203 23.1563L13.6358 26.9906C13.6124 27.15 13.6687 27.3047 13.7905 27.4031L14.953 28.3969C14.9718 28.4156 14.9999 28.425 15.0233 28.4391C15.0421 28.4484 15.0562 28.4625 15.0749 28.4672C15.1312 28.4906 15.1874 28.5047 15.2437 28.5047H15.2483C15.3046 28.5047 15.3608 28.4906 15.4171 28.4672C15.4358 28.4625 15.4499 28.4484 15.4687 28.4391C15.4921 28.425 15.5202 28.4156 15.539 28.3969L16.7015 27.4031C16.7612 27.354 16.8069 27.29 16.8341 27.2176C16.8612 27.1452 16.8688 27.0669 16.8562 26.9906L16.289 23.1563L16.2983 23.1328L16.6312 23.6672C16.7108 23.7985 16.8515 23.8781 17.0062 23.8828H17.0155C17.1655 23.8828 17.3062 23.8078 17.3905 23.6859L19.4999 20.6766C19.7437 20.7609 19.9968 20.8313 20.2687 20.8734C21.0702 21.0094 22.5374 21.4406 23.3202 22.8C23.6062 23.2875 23.7562 23.8922 23.7562 24.5438Z" fill="#53BE9E"/>
<path d="M17.6577 19.1719L15.4452 21.0188C15.403 21.0516 15.3749 21.0891 15.3515 21.1313H15.014C14.9894 21.0887 14.9577 21.0506 14.9202 21.0188L12.8296 19.275C12.8483 19.2328 12.8765 19.1859 12.8905 19.1438C12.9233 19.1672 12.9515 19.1906 12.9843 19.2094C13.6 19.5942 14.3113 19.7988 15.0374 19.8C15.853 19.8 16.6687 19.5375 17.3577 19.0219C17.4093 18.9797 17.4608 18.9375 17.5171 18.8953C17.5546 18.9844 17.6015 19.0781 17.6577 19.1719Z" fill="#FFE4AA"/>
<path d="M18.9655 13.5984C18.8108 16.2281 17.7468 17.5922 16.814 18.2953C16.3351 18.6549 15.7584 18.8609 15.16 18.886C14.5617 18.9111 13.9697 18.7542 13.4624 18.4359C12.2624 17.6906 11.6718 16.3875 11.3765 15.314C11.5593 14.6953 11.7937 14.2547 11.9671 13.9969L12.5905 14.4656C12.6626 14.52 12.7492 14.5517 12.8394 14.5566C12.9296 14.5615 13.0191 14.5393 13.0967 14.493C13.1742 14.4467 13.2361 14.3783 13.2745 14.2966C13.313 14.2149 13.3262 14.1236 13.3124 14.0344C13.2796 13.814 13.289 13.6265 13.3171 13.4672C14.114 14.1609 15.3233 14.339 15.5015 14.3625C16.9733 14.5031 18.1358 14.25 18.9655 13.5984Z" fill="#FFE4AA"/>
<path d="M19.4157 10.4812C19.411 11.0484 19.2939 11.9859 18.6564 12.6562C18.0235 13.3219 16.9923 13.5937 15.6048 13.4578C15.1642 13.4015 13.9548 13.1015 13.622 12.4172C13.5908 12.3509 13.5437 12.2935 13.4847 12.2501C13.4258 12.2068 13.357 12.1788 13.2845 12.1687C13.2113 12.1572 13.1364 12.1635 13.0662 12.1872C12.996 12.2109 12.9326 12.2512 12.8814 12.3047C12.8673 12.3234 12.572 12.6422 12.4407 13.214L12.1548 13.0031C12.0695 12.9373 11.9633 12.9044 11.8557 12.9104C11.7481 12.9164 11.6463 12.961 11.5689 13.0359C11.5501 13.0547 11.3439 13.2656 11.0907 13.6828C11.086 13.6031 11.086 13.5515 11.086 13.5515C11.086 13.5469 11.0814 13.5469 11.0814 13.5422C11.0814 13.5422 11.086 13.5422 11.086 13.5375C10.9876 11.264 11.8689 10.9312 11.8689 10.9312C11.9814 10.9031 12.0798 10.8281 12.1454 10.7297C12.2064 10.6265 13.7673 8.22185 17.4657 10.0547C17.5126 10.0781 18.4595 10.5797 19.4157 10.4812Z" fill="#4EBCE5"/>
<path d="M13.9032 3.38435L13.1485 3.22966C13.1157 3.14528 13.0829 3.05622 13.0407 2.96716L13.4626 2.32966C13.5845 2.14685 13.561 1.90778 13.4063 1.75778L12.5063 0.857783C12.4328 0.782796 12.3352 0.736072 12.2306 0.725789C12.1261 0.715505 12.0212 0.742318 11.9345 0.801533L11.3345 1.19997C11.2313 1.14841 11.1282 1.10622 11.0204 1.06403L10.8798 0.360908C10.8593 0.258239 10.8036 0.165954 10.7223 0.100036C10.641 0.0341189 10.5392 -0.00127979 10.4345 -2.89886e-05H9.16416C8.94853 -2.89886e-05 8.76104 0.149971 8.71885 0.360908L8.57822 1.06403C8.47041 1.10622 8.36728 1.14841 8.26416 1.19997L7.66416 0.801533C7.57733 0.742497 7.47253 0.715793 7.36803 0.726072C7.26354 0.73635 7.16595 0.78296 7.09229 0.857783L6.19229 1.75778C6.0376 1.90778 6.01416 2.14685 6.13604 2.32966L6.55791 2.96716C6.52041 3.05622 6.48291 3.14528 6.4501 3.22966L5.7001 3.38435C5.48916 3.42653 5.33447 3.60935 5.33447 3.82966V5.09997C5.33447 5.3156 5.48916 5.5031 5.7001 5.54528L6.4501 5.69528C6.48291 5.78435 6.52041 5.87341 6.55791 5.96247L6.13604 6.59997C6.01416 6.7781 6.0376 7.01716 6.19229 7.17185L7.09229 8.07185C7.24697 8.22653 7.48604 8.24997 7.66416 8.1281L8.26416 7.72966C8.36728 7.78122 8.47041 7.82341 8.57822 7.86091L8.71885 8.56403C8.76104 8.77497 8.94853 8.92966 9.16416 8.92966H10.4345C10.6548 8.92966 10.8376 8.77497 10.8798 8.56403L11.0204 7.86091C11.1282 7.82341 11.2313 7.77653 11.3345 7.72966L11.9345 8.1281C12.1173 8.24997 12.3563 8.22653 12.5063 8.07185L13.4063 7.17185C13.561 7.01716 13.5845 6.7781 13.4626 6.59997L13.0407 5.96247C13.0829 5.87341 13.1157 5.78435 13.1485 5.69528L13.8985 5.54528C14.1142 5.5031 14.2642 5.3156 14.2642 5.09997V3.82966C14.2642 3.60935 14.1142 3.42653 13.9032 3.38435ZM13.3595 4.72497L12.7079 4.85622C12.5485 4.88903 12.4173 5.00622 12.3657 5.1656L12.3235 5.29685C12.286 5.41872 12.2345 5.54528 12.1688 5.68122L12.1079 5.79841C12.0376 5.94372 12.0517 6.11716 12.1407 6.24841L12.5017 6.79216L12.1267 7.16716L11.6157 6.82497C11.4751 6.73122 11.297 6.72185 11.147 6.80153L11.0298 6.86716C10.8938 6.93747 10.7532 6.99841 10.6126 7.04528L10.486 7.08278C10.4092 7.10856 10.3405 7.15424 10.2869 7.21516C10.2334 7.27609 10.197 7.35009 10.1813 7.42966L10.0642 8.02028H9.53916L9.41729 7.42966C9.40242 7.34977 9.36627 7.27537 9.31264 7.21432C9.25902 7.15327 9.1899 7.10782 9.1126 7.08278L8.98604 7.0406C8.84541 6.99841 8.70479 6.93747 8.57354 6.86716L8.45166 6.80153C8.37877 6.76249 8.29662 6.74405 8.21403 6.74817C8.13145 6.7523 8.05154 6.77885 7.98291 6.82497L7.47197 7.16716L7.09697 6.79216L7.4626 6.24841C7.55166 6.11716 7.56104 5.94372 7.49072 5.79841L7.42979 5.67653C7.36416 5.54528 7.3126 5.41872 7.2751 5.29216L7.23291 5.1656C7.20905 5.08797 7.16466 5.01824 7.10442 4.96378C7.04419 4.90932 6.97035 4.87216 6.89072 4.85622L6.24385 4.72497V4.19997L6.89072 4.06872C6.97001 4.05371 7.04374 4.01743 7.10401 3.96376C7.16428 3.9101 7.20883 3.84106 7.23291 3.76403L7.2751 3.63278C7.3126 3.50622 7.36416 3.38435 7.42979 3.24841L7.49072 3.13122C7.56104 2.98591 7.55166 2.81247 7.4626 2.67653L7.09697 2.13278L7.47197 1.76247L7.98291 2.10466C8.12354 2.19841 8.30166 2.20778 8.45166 2.1281L8.57354 2.06247C8.70479 1.99216 8.84541 1.93122 8.98604 1.88435L9.1126 1.84216C9.27197 1.7906 9.38447 1.65935 9.41729 1.49997L9.53916 0.904658H10.0642L10.1813 1.49997C10.2142 1.65935 10.3313 1.7906 10.486 1.84216L10.6126 1.88435C10.7532 1.93122 10.8938 1.99216 11.0298 2.06247L11.1517 2.1281C11.297 2.20778 11.4751 2.19841 11.6157 2.10466L12.1267 1.76247L12.5017 2.13278L12.1407 2.67653C12.0966 2.74309 12.0704 2.81992 12.0646 2.89957C12.0589 2.97922 12.0738 3.05901 12.1079 3.13122L12.1688 3.24841C12.2345 3.38435 12.286 3.51091 12.3235 3.63278L12.3657 3.76403C12.4173 3.91872 12.5485 4.0406 12.7079 4.06872L13.3595 4.19997V4.72497Z" fill="#2A2F63"/>
<path d="M12.7077 4.06873C12.6287 4.05301 12.5553 4.01648 12.4952 3.96291C12.435 3.90935 12.3903 3.84069 12.3655 3.76404L12.3233 3.63279C12.2858 3.51091 12.2343 3.38435 12.1687 3.24841L12.1077 3.13123C12.0736 3.05902 12.0587 2.97923 12.0644 2.89958C12.0702 2.81992 12.0964 2.7431 12.1405 2.67654L12.5015 2.13279L12.1265 1.76248L11.6155 2.10466C11.4749 2.19841 11.2968 2.20779 11.1515 2.1281L11.0296 2.06248C10.8937 1.99216 10.753 1.93123 10.6124 1.88435L10.4858 1.84216C10.4096 1.81665 10.3414 1.77165 10.288 1.71162C10.2345 1.6516 10.1977 1.57863 10.1812 1.49998L10.064 0.904663H9.53897L9.41709 1.49998C9.38428 1.65935 9.27178 1.7906 9.1124 1.84216L8.98584 1.88435C8.84522 1.93123 8.70459 1.99216 8.57334 2.06248L8.45147 2.1281C8.30147 2.20779 8.12334 2.19841 7.98272 2.10466L7.47178 1.76248L7.09678 2.13279L7.4624 2.67654C7.55147 2.81248 7.56084 2.98591 7.49053 3.13123L7.42959 3.24841C7.36397 3.38435 7.3124 3.50623 7.2749 3.63279L7.23272 3.76404C7.20864 3.84106 7.16408 3.9101 7.10381 3.96377C7.04354 4.01743 6.96982 4.05371 6.89053 4.06873L6.24365 4.19998V4.72498L6.89053 4.85623C7.0499 4.88904 7.18584 5.00623 7.23272 5.1656L7.2749 5.29216C7.3124 5.41873 7.36397 5.54529 7.42959 5.67654L7.49053 5.79841C7.56084 5.94373 7.55147 6.11716 7.4624 6.24841L7.09678 6.79216L7.47178 7.16716L7.98272 6.82498C8.12334 6.73123 8.30147 6.72185 8.45147 6.80154L8.57334 6.86716C8.70459 6.93748 8.84522 6.99841 8.98584 7.0406L9.1124 7.08279C9.27178 7.13435 9.38428 7.2656 9.41709 7.42966L9.53897 8.02029H10.064L10.1812 7.42966C10.1968 7.3501 10.2332 7.27609 10.2868 7.21517C10.3403 7.15424 10.409 7.10857 10.4858 7.08279L10.6124 7.04529C10.753 6.99841 10.8937 6.93748 11.0296 6.86716L11.1468 6.80154C11.2968 6.72185 11.4749 6.73123 11.6155 6.82498L12.1265 7.16716L12.5015 6.79216L12.1405 6.24841C12.0963 6.18276 12.0701 6.10671 12.0643 6.02778C12.0585 5.94884 12.0735 5.86978 12.1077 5.79841L12.1687 5.68123C12.2343 5.54529 12.2858 5.41873 12.3233 5.29685L12.3655 5.1656C12.4171 5.00623 12.5483 4.88904 12.7077 4.85623L13.3593 4.72498V4.19998L12.7077 4.06873ZM9.80147 6.55779C8.64365 6.55779 7.70615 5.62029 7.70615 4.46248C7.70615 3.30935 8.64365 2.36716 9.80147 2.36716C10.9546 2.36716 11.8968 3.30935 11.8968 4.46248C11.8968 5.62029 10.9546 6.55779 9.80147 6.55779Z" fill="#FFDB7C"/>
<path d="M9.80161 2.36719C8.6438 2.36719 7.7063 3.30938 7.7063 4.4625C7.7063 5.62031 8.6438 6.55781 9.80161 6.55781C10.9547 6.55781 11.8969 5.62031 11.8969 4.4625C11.8969 3.30938 10.9547 2.36719 9.80161 2.36719ZM9.80161 5.64844C9.14536 5.64844 8.61567 5.11875 8.61567 4.4625C8.61567 3.81094 9.14536 3.27656 9.80161 3.27656C10.1158 3.2778 10.4167 3.40314 10.6388 3.62528C10.861 3.84742 10.9863 4.14835 10.9875 4.4625C10.9875 5.11875 10.4532 5.64844 9.80161 5.64844Z" fill="#2A2F63"/>
</g>
<defs>
<clipPath id="clip0_1166_312">
<rect width="30" height="30" fill="white"/>
</clipPath>
</defs>
</svg>
