<svg width="30" height="30" viewBox="0 0 30 30" fill="none" xmlns="http://www.w3.org/2000/svg">
<path d="M12.5806 26.3736L12.4609 25.5167C12.3261 24.5525 12.298 23.5763 12.3771 22.6059L12.4656 21.5211C12.5416 20.5885 12.7917 19.6785 13.2029 18.8381V18.8381C13.4326 18.3686 13.7108 17.9244 14.033 17.5128L14.2062 17.2916C14.6268 16.7542 15.1004 16.2606 15.62 15.8182L16.7742 14.8352L16.8994 14.7392C17.6657 14.1518 18.2854 13.3948 18.7097 12.5275V12.5275L19.262 11.6808C19.3199 11.592 19.4188 11.5385 19.5248 11.5385V11.5385C19.698 11.5385 19.8385 11.398 19.8385 11.2247V10.1828C19.8385 9.99967 19.748 9.8284 19.5967 9.72527V9.72527C19.4454 9.62214 19.3548 9.45088 19.3548 9.26777V9.10192C19.3548 8.96979 19.385 8.8394 19.4431 8.72071L19.5161 8.57143C19.6223 8.35452 19.6774 8.11623 19.6774 7.87475V6.59341V6.31079C19.6774 5.62439 19.569 4.9423 19.3561 4.28973L19.2773 4.04797C19.115 3.5503 18.8744 3.08165 18.5647 2.65963V2.65963C18.2337 2.20852 17.8282 1.81704 17.3658 1.50198L17.0968 1.31868L16.2009 0.631984C15.9451 0.435926 15.6318 0.32967 15.3095 0.32967V0.32967C15.2109 0.32967 15.1126 0.319727 15.0161 0.29999L14.4986 0.194218C13.8684 0.065413 13.223 0.0282021 12.5822 0.0837346L12.2581 0.111821L11.3437 0.266194C11.0935 0.308443 10.847 0.370788 10.6068 0.452623V0.452623C10.2041 0.589806 9.82179 0.780756 9.47022 1.02029L9.44147 1.03988C9.16933 1.22529 8.91625 1.43723 8.68595 1.6726L7.74194 2.63736V2.63736C7.3196 3.06898 7.02107 3.60619 6.87758 4.19276L6.87278 4.21237C6.80729 4.48008 6.77419 4.75468 6.77419 5.03028V5.6044V6.40293C6.77419 6.74753 6.82863 7.08997 6.93548 7.41758L7.01354 7.6569C7.06868 7.82596 7.09677 8.00268 7.09677 8.1805V8.39017C7.09677 8.50943 7.12402 8.62712 7.17643 8.73424L7.21665 8.81646C7.33817 9.06483 7.29016 9.36281 7.09677 9.56044V9.56044V9.56044C6.88999 9.77177 6.77419 10.0557 6.77419 10.3513V10.8791V10.9392C6.77419 11.2289 6.85982 11.5121 7.02032 11.7533V11.7533C7.07118 11.8297 7.12908 11.9012 7.19328 11.9668L7.20083 11.9745C7.34512 12.1219 7.45922 12.2962 7.53672 12.4874L7.61251 12.6744C7.69842 12.8863 7.81185 13.0861 7.94987 13.2684L8.3871 13.8462L8.70968 14.1758L8.77558 14.2432C8.9456 14.4169 9.08671 14.6168 9.19355 14.8352V14.8352C9.30039 15.0535 9.44149 15.2534 9.61152 15.4272L9.67742 15.4945V15.4945C9.87803 15.6995 9.95856 15.9936 9.8904 16.2722L9.73492 16.9078C9.69672 17.0639 9.67742 17.2241 9.67742 17.3848V17.4725V18.1319V18.1319C9.67742 18.3342 9.56403 18.5195 9.38385 18.6115L9.03226 18.7912L7.79237 19.2981C7.54438 19.3994 7.30773 19.5266 7.08632 19.6774V19.6774C6.66737 19.9629 6.19583 20.1622 5.69915 20.2637L5.30274 20.3447C4.99481 20.4077 4.69683 20.5121 4.41696 20.6551L4.40513 20.6611C4.26426 20.7331 4.11838 20.7948 3.96864 20.8458L3.74389 20.9224C3.40327 21.0384 3.09469 21.2329 2.84302 21.4901V21.4901C2.66926 21.6677 2.46627 21.8133 2.25378 21.9421C2.03236 22.0763 1.77561 22.2513 1.6129 22.4176C1.35484 22.6813 0.860215 23.4066 0.645161 23.7363L0.604475 23.8194C0.41709 24.2024 0.27148 24.6045 0.170163 25.0187L0.156671 25.0738C0.0526003 25.4993 0 25.9356 0 26.3736V26.3736V26.3736C0 26.5557 0.147598 26.7033 0.32967 26.7033H12.251C12.433 26.7033 12.5806 26.5557 12.5806 26.3736V26.3736Z" fill="#538FC0"/>
<path fill-rule="evenodd" clip-rule="evenodd" d="M20.9678 30H22.2528C26.5315 30 30.0001 26.5314 30.0001 22.2527V22.2527C30.0001 17.9741 26.4578 14.5055 22.1791 14.5055V14.5055C17.8373 14.5055 14.2679 18.0731 14.3583 22.414L14.3819 23.5498C14.4565 27.1337 17.3832 30 20.9678 30V30ZM19.2727 21.2003C18.6253 21.1566 18.0646 21.6628 18.0646 22.3116V22.3116C18.0646 22.9163 18.5549 23.4066 19.1597 23.4066C19.9832 23.4066 20.7446 23.4066 20.9678 23.4066C21.1634 23.4066 21.1218 24.6191 21.0587 25.5735C21.0186 26.1797 21.4942 26.7033 22.1018 26.7033V26.7033C22.7058 26.7033 23.1801 26.1854 23.1414 25.5826C23.075 24.5479 23.0236 23.1999 23.2259 23.4066C23.4122 23.5971 24.3524 23.5674 25.1131 23.5085C25.6954 23.4633 26.1291 22.969 26.1291 22.3851V22.1168C26.1291 21.8809 26.0752 21.6481 25.9715 21.4361V21.4361C25.8691 21.2269 25.6646 21.0865 25.4322 21.07C24.7539 21.0217 23.377 20.9444 23.2259 21.0989C23.105 21.2224 23.1291 20.0118 23.1678 19.023C23.1937 18.36 22.6668 17.8022 22.0033 17.8022V17.8022C21.4142 17.8022 20.9191 18.2455 20.8773 18.8332C20.814 19.7238 20.7717 20.8985 20.9678 21.0989C21.1547 21.2899 20.1505 21.2596 19.2727 21.2003Z" fill="#4AA3BC"/>
</svg>
