<svg width="22" height="26" viewBox="0 0 22 26" fill="none" xmlns="http://www.w3.org/2000/svg">
<path d="M18.9999 10H3C2.73478 10 2.48043 10.1054 2.29289 10.2929C2.10536 10.4804 2 10.7348 2 11V21C2 22.3261 2.52678 23.5979 3.46446 24.5355C4.40214 25.4732 5.6739 26 6.99998 26H14.9999C16.326 26 17.5978 25.4732 18.5355 24.5355C19.4731 23.5979 19.9999 22.3261 19.9999 21V11C19.9999 10.7348 19.8946 10.4804 19.707 10.2929C19.5195 10.1054 19.2651 10 18.9999 10Z" fill="#EA4335"/>
<path d="M19.9999 11V21C19.9999 22.3261 19.4731 23.5979 18.5355 24.5355C17.5978 25.4732 16.326 26 14.9999 26H6.99998C5.6739 26 4.40214 25.4732 3.46446 24.5355C2.52678 23.5979 2 22.3261 2 21V11C2 10.7348 2.10536 10.4804 2.29289 10.2929C2.48043 10.1054 2.73478 10 3 10H18.9999C19.2651 10 19.5195 10.1054 19.707 10.2929C19.8946 10.4804 19.9999 10.7348 19.9999 11Z" fill="#9A241E"/>
<path d="M19.9999 11V13.5H4.49999C4.15841 13.5021 3.81939 13.4411 3.49999 13.32C2.88416 13.1017 2.35712 12.6871 2 12.14V11C2 10.7348 2.10536 10.4804 2.29289 10.2929C2.48043 10.1054 2.73478 10 3 10H18.9999C19.2651 10 19.5195 10.1054 19.707 10.2929C19.8946 10.4804 19.9999 10.7348 19.9999 11Z" fill="#761510"/>
<path d="M8 22C7.73478 22 7.48043 21.8946 7.29289 21.7071C7.10536 21.5196 7 21.2652 7 21V15C7 14.7348 7.10536 14.4804 7.29289 14.2929C7.48043 14.1054 7.73478 14 8 14C8.26521 14 8.51956 14.1054 8.7071 14.2929C8.89464 14.4804 8.99999 14.7348 8.99999 15V21C8.99999 21.2652 8.89464 21.5196 8.7071 21.7071C8.51956 21.8946 8.26521 22 8 22ZM14 22C13.7348 22 13.4804 21.8946 13.2929 21.7071C13.1053 21.5196 13 21.2652 13 21V15C13 14.7348 13.1053 14.4804 13.2929 14.2929C13.4804 14.1054 13.7348 14 14 14C14.2652 14 14.5195 14.1054 14.7071 14.2929C14.8946 14.4804 15 14.7348 15 15V21C15 21.2652 14.8946 21.5196 14.7071 21.7071C14.5195 21.8946 14.2652 22 14 22ZM11 0C9.93912 0 8.92171 0.421427 8.17157 1.17157C7.42143 1.92172 7 2.93913 7 4V5C7 5.26522 7.10536 5.51957 7.29289 5.70711C7.48043 5.89464 7.73478 6 8 6H14C14.2652 6 14.5195 5.89464 14.7071 5.70711C14.8946 5.51957 15 5.26522 15 5V4C15 2.93913 14.5785 1.92172 13.8284 1.17157C13.0783 0.421427 12.0608 0 11 0ZM8.99999 4C8.99999 3.46957 9.21071 2.96086 9.58578 2.58579C9.96085 2.21071 10.4696 2 11 2C11.5304 2 12.0391 2.21071 12.4142 2.58579C12.7893 2.96086 13 3.46957 13 4H8.99999Z" fill="black" fill-opacity="0.75"/>
<path d="M21.9999 7V9C22.0032 9.42184 21.9109 9.83894 21.7299 10.22C21.5645 10.5897 21.3259 10.922 21.0286 11.197C20.7313 11.472 20.3814 11.6839 19.9999 11.82C19.6805 11.9411 19.3415 12.0021 18.9999 12H2.99999C2.65841 12.0021 2.31939 11.9411 1.99999 11.82C1.41645 11.6137 0.910995 11.2319 0.552936 10.7271C0.194878 10.2222 0.0017395 9.61894 0 9V7C0.00194662 6.42308 0.169869 5.85891 0.483721 5.37483C0.797574 4.89075 1.2441 4.50721 1.76999 4.27C2.1558 4.09258 2.57534 4.00048 2.99999 4H18.9999C19.7948 4.00237 20.5565 4.31921 21.1186 4.8813C21.6807 5.4434 21.9975 6.20508 21.9999 7Z" fill="#2E0200"/>
<path d="M21.9999 7V9C22.0032 9.42184 21.9109 9.83894 21.7299 10.22C21.656 10.2593 21.5791 10.2927 21.4999 10.32C21.1805 10.4411 20.8415 10.5021 20.4999 10.5H4.49999C4.15841 10.5021 3.81939 10.4411 3.49999 10.32C2.91644 10.1137 2.41099 9.73193 2.05294 9.22707C1.69488 8.7222 1.50174 8.11894 1.5 7.5V5.5C1.50048 5.07535 1.59258 4.65581 1.77 4.27C2.15581 4.09258 2.57535 4.00048 2.99999 4H18.9999C19.7948 4.00237 20.5565 4.31921 21.1186 4.8813C21.6807 5.4434 21.9975 6.20508 21.9999 7Z" fill="#761510"/>
</svg>
