<svg width="25" height="24" viewBox="0 0 25 24" fill="none" xmlns="http://www.w3.org/2000/svg">
<path d="M18.5213 1.63471L19.4633 0.76871C20.0743 0.22571 20.8373 -0.0392897 21.6453 0.00471028C22.4453 0.0517103 23.1793 0.40771 23.7113 1.00671C24.2433 1.60571 24.5113 2.37571 24.4633 3.17571C24.4163 3.97571 24.0613 4.70971 23.4613 5.24171L22.7673 5.87971L18.5213 1.63371V1.63471ZM17.0473 2.98871L10.2363 9.24771C10.0943 9.37771 9.9943 9.54471 9.9453 9.73071L9.0323 13.2187C8.9483 13.5427 9.0303 13.8867 9.2533 14.1367C9.4433 14.3517 9.7173 14.4717 10.0003 14.4717C10.0463 14.4717 10.0923 14.4687 10.1393 14.4617L13.7093 13.9627C13.9103 13.9347 14.0983 13.8457 14.2473 13.7087L21.2933 7.23371L17.0473 2.98871Z" fill="#FD9467"/>
<path d="M21 24H3C1.346 24 0 22.654 0 21V3C0 1.346 1.346 0 3 0H14C14.553 0 15 0.448 15 1C15 1.552 14.553 2 14 2H3C2.448 2 2 2.449 2 3V21C2 21.551 2.448 22 3 22H21C21.552 22 22 21.551 22 21V10C22 9.448 22.447 9 23 9C23.553 9 24 9.448 24 10V21C24 22.654 22.654 24 21 24Z" fill="#61C3B6"/>
</svg>
