<svg width="30" height="30" viewBox="0 0 30 30" fill="none" xmlns="http://www.w3.org/2000/svg">
<path d="M22.0312 3.75H3.28125C2.76348 3.75 2.34375 4.16973 2.34375 4.6875V7.5C2.34375 8.01777 2.76348 8.4375 3.28125 8.4375H22.0312C22.549 8.4375 22.9688 8.01777 22.9688 7.5V4.6875C22.9688 4.16973 22.549 3.75 22.0312 3.75Z" fill="#7ACCBE"/>
<path d="M18.0563 3.75C17.6872 5.50193 16.8515 7.12154 15.6375 8.4375H3.28125C3.03261 8.4375 2.79415 8.33873 2.61834 8.16291C2.44252 7.9871 2.34375 7.74864 2.34375 7.5V4.6875C2.34375 4.43886 2.44252 4.2004 2.61834 4.02459C2.79415 3.84877 3.03261 3.75 3.28125 3.75H18.0563Z" fill="#61C3B6"/>
<path d="M20.1562 2.34375C20.1562 1.82598 19.7365 1.40625 19.2188 1.40625C18.701 1.40625 18.2812 1.82598 18.2812 2.34375V5.15625C18.2812 5.67402 18.701 6.09375 19.2188 6.09375C19.7365 6.09375 20.1562 5.67402 20.1562 5.15625V2.34375Z" fill="#FD9467"/>
<path d="M7.5 2.34375C7.5 1.82598 7.08027 1.40625 6.5625 1.40625C6.04473 1.40625 5.625 1.82598 5.625 2.34375V5.15625C5.625 5.67402 6.04473 6.09375 6.5625 6.09375C7.08027 6.09375 7.5 5.67402 7.5 5.15625V2.34375Z" fill="#FD9467"/>
<path d="M22.0312 8.4375V26.7188C22.0312 27.216 21.8337 27.6929 21.4821 28.0446C21.1304 28.3962 20.6535 28.5938 20.1562 28.5938H5.15625C4.65897 28.5938 4.18206 28.3962 3.83042 28.0446C3.47879 27.6929 3.28125 27.216 3.28125 26.7188V8.4375H22.0312Z" fill="white"/>
<path d="M22.0312 8.4375H3.28125V9.84375H22.0312V8.4375Z" fill="#E6E6E6"/>
<path d="M22.0311 12.2719V21.0187L20.0811 23.3625L15.1733 25.4765C15.0935 25.5111 15.0055 25.5228 14.9194 25.5102C14.8333 25.4977 14.7524 25.4614 14.6857 25.4054C14.619 25.3495 14.5693 25.276 14.542 25.1934C14.5147 25.1107 14.5109 25.0221 14.5311 24.9375L15.778 19.7297L22.0311 12.2719Z" fill="#E6E6E6"/>
<path d="M27.0516 12.8484L26.1469 13.9265L22.8656 17.8172L19.2188 22.1859L16.3359 23.4375L17.0672 20.3812L22.5 13.9312L24.0188 12.1218L24.9234 11.0437C25.0025 10.9491 25.0994 10.8711 25.2086 10.814C25.3179 10.7569 25.4373 10.7219 25.5601 10.711C25.6829 10.7001 25.8066 10.7135 25.9242 10.7505C26.0417 10.7875 26.1509 10.8473 26.2453 10.9265L26.9625 11.5312C27.148 11.6947 27.2615 11.9248 27.2782 12.1715C27.2949 12.4182 27.2134 12.6615 27.0516 12.8484Z" fill="#FFA88A"/>
<path d="M22.9688 16.6406C22.9675 17.0329 22.9378 17.4246 22.8797 17.8125L19.2188 22.186L16.3359 23.4375L17.0672 20.3813L22.5 13.9313C22.8185 14.7987 22.9773 15.7166 22.9688 16.6406Z" fill="#FD9467"/>
<path d="M27.0516 12.8484L26.1469 13.9265L23.9954 12.1218L24.9 11.0437C24.9791 10.9491 25.076 10.8711 25.1852 10.814C25.2945 10.7569 25.4139 10.7219 25.5367 10.711C25.6595 10.7001 25.7832 10.7135 25.9008 10.7505C26.0183 10.7875 26.1275 10.8473 26.2219 10.9265L26.9391 11.5312C27.1281 11.6914 27.246 11.9198 27.267 12.1666C27.2881 12.4134 27.2107 12.6585 27.0516 12.8484Z" fill="#61C3B6"/>
<path d="M19.2188 22.1859L16.3359 23.4375L17.0672 20.3812L19.2188 22.1859Z" fill="white"/>
<path d="M27.2391 11.1703L26.5219 10.5703C26.3804 10.4516 26.2169 10.362 26.0408 10.3065C25.8646 10.251 25.6793 10.2307 25.4953 10.2469C25.3139 10.2634 25.1376 10.3158 24.9766 10.4011C24.8157 10.4864 24.6733 10.6029 24.5578 10.7438L23.6531 11.8172L22.5 13.1719V8.82187C22.7735 8.72517 23.0105 8.54622 23.1783 8.30956C23.3462 8.07291 23.4367 7.79013 23.4375 7.5V4.6875C23.4375 4.31454 23.2893 3.95685 23.0256 3.69313C22.7619 3.42941 22.4042 3.28125 22.0312 3.28125H20.625V2.34375C20.625 1.97079 20.4768 1.6131 20.2131 1.34938C19.9494 1.08566 19.5917 0.9375 19.2187 0.9375C18.8458 0.9375 18.4881 1.08566 18.2244 1.34938C17.9607 1.6131 17.8125 1.97079 17.8125 2.34375V3.28125H7.96875V2.34375C7.96875 1.97079 7.82059 1.6131 7.55687 1.34938C7.29315 1.08566 6.93546 0.9375 6.5625 0.9375C6.18954 0.9375 5.83185 1.08566 5.56813 1.34938C5.30441 1.6131 5.15625 1.97079 5.15625 2.34375V3.28125H3.28125C2.90829 3.28125 2.5506 3.42941 2.28688 3.69313C2.02316 3.95685 1.875 4.31454 1.875 4.6875V7.5C1.87582 7.79013 1.96635 8.07291 2.13419 8.30956C2.30203 8.54622 2.53896 8.72517 2.8125 8.82187V26.7188C2.8125 27.3404 3.05943 27.9365 3.49897 28.376C3.93851 28.8156 4.53465 29.0625 5.15625 29.0625H20.1562C20.464 29.0625 20.7688 29.0019 21.0532 28.8841C21.3375 28.7663 21.5959 28.5937 21.8135 28.376C22.0312 28.1584 22.2038 27.9 22.3216 27.6157C22.4394 27.3313 22.5 27.0265 22.5 26.7188V19.0078L27.4125 13.1531C27.5314 13.0116 27.6213 12.848 27.677 12.6717C27.7327 12.4955 27.753 12.3099 27.7369 12.1258C27.7208 11.9416 27.6685 11.7624 27.5831 11.5985C27.4977 11.4345 27.3808 11.289 27.2391 11.1703ZM19.1625 21.525L17.7234 20.3203L24.0516 12.7781L25.4906 13.9875L19.1625 21.525ZM17.3437 21.225L18.3375 22.0594L17.0062 22.6359L17.3437 21.225ZM18.75 2.34375C18.75 2.21943 18.7994 2.1002 18.8873 2.01229C18.9752 1.92439 19.0944 1.875 19.2187 1.875C19.3431 1.875 19.4623 1.92439 19.5502 2.01229C19.6381 2.1002 19.6875 2.21943 19.6875 2.34375V5.15625C19.6875 5.28057 19.6381 5.3998 19.5502 5.48771C19.4623 5.57561 19.3431 5.625 19.2187 5.625C19.0944 5.625 18.9752 5.57561 18.8873 5.48771C18.7994 5.3998 18.75 5.28057 18.75 5.15625V2.34375ZM6.09375 2.34375C6.09375 2.21943 6.14314 2.1002 6.23104 2.01229C6.31895 1.92439 6.43818 1.875 6.5625 1.875C6.68682 1.875 6.80605 1.92439 6.89396 2.01229C6.98186 2.1002 7.03125 2.21943 7.03125 2.34375V5.15625C7.03125 5.28057 6.98186 5.3998 6.89396 5.48771C6.80605 5.57561 6.68682 5.625 6.5625 5.625C6.43818 5.625 6.31895 5.57561 6.23104 5.48771C6.14314 5.3998 6.09375 5.28057 6.09375 5.15625V2.34375ZM2.8125 4.6875C2.8125 4.56318 2.86189 4.44395 2.94979 4.35604C3.0377 4.26814 3.15693 4.21875 3.28125 4.21875H5.15625V5.15625C5.15625 5.52921 5.30441 5.8869 5.56813 6.15062C5.83185 6.41434 6.18954 6.5625 6.5625 6.5625C6.93546 6.5625 7.29315 6.41434 7.55687 6.15062C7.82059 5.8869 7.96875 5.52921 7.96875 5.15625V4.21875H17.8125V5.15625C17.8125 5.52921 17.9607 5.8869 18.2244 6.15062C18.4881 6.41434 18.8458 6.5625 19.2187 6.5625C19.5917 6.5625 19.9494 6.41434 20.2131 6.15062C20.4768 5.8869 20.625 5.52921 20.625 5.15625V4.21875H22.0312C22.1556 4.21875 22.2748 4.26814 22.3627 4.35604C22.4506 4.44395 22.5 4.56318 22.5 4.6875V7.5C22.5 7.62432 22.4506 7.74355 22.3627 7.83146C22.2748 7.91936 22.1556 7.96875 22.0312 7.96875H3.28125C3.15693 7.96875 3.0377 7.91936 2.94979 7.83146C2.86189 7.74355 2.8125 7.62432 2.8125 7.5V4.6875ZM21.5625 26.7188C21.5625 27.0917 21.4143 27.4494 21.1506 27.7131C20.8869 27.9768 20.5292 28.125 20.1562 28.125H5.15625C4.78329 28.125 4.4256 27.9768 4.16188 27.7131C3.89816 27.4494 3.75 27.0917 3.75 26.7188V8.90625H21.5625V14.2922L16.7062 20.0766C16.6619 20.1292 16.6313 20.192 16.6172 20.2594L15.8859 23.3203C15.8656 23.4051 15.8693 23.4939 15.8966 23.5767C15.9239 23.6595 15.9738 23.7331 16.0406 23.7891C16.1272 23.8583 16.2345 23.8963 16.3453 23.8969C16.4096 23.8957 16.4731 23.883 16.5328 23.8594L19.4156 22.6078C19.4814 22.5801 19.5393 22.5366 19.5844 22.4812L21.5672 20.1375L21.5625 26.7188ZM26.7187 12.5484L26.0906 13.2656L24.6562 12.0609L25.2562 11.3438C25.3366 11.249 25.4512 11.19 25.575 11.1797C25.6363 11.1743 25.6981 11.1811 25.7568 11.1996C25.8155 11.2181 25.87 11.2479 25.9172 11.2875L26.6391 11.8875C26.6879 11.9255 26.7288 11.9728 26.7592 12.0267C26.7897 12.0805 26.8092 12.1399 26.8166 12.2014C26.824 12.2628 26.8192 12.3251 26.8024 12.3847C26.7856 12.4443 26.7572 12.4999 26.7187 12.5484Z" fill="#4E5B5F"/>
<path d="M6.5625 12.6562H18.75C18.8743 12.6562 18.9935 12.6069 19.0815 12.519C19.1694 12.431 19.2188 12.3118 19.2188 12.1875C19.2188 12.0632 19.1694 11.944 19.0815 11.856C18.9935 11.7681 18.8743 11.7188 18.75 11.7188H6.5625C6.43818 11.7188 6.31895 11.7681 6.23104 11.856C6.14314 11.944 6.09375 12.0632 6.09375 12.1875C6.09375 12.3118 6.14314 12.431 6.23104 12.519C6.31895 12.6069 6.43818 12.6562 6.5625 12.6562Z" fill="#FD9467"/>
<path d="M6.5625 16.4062H17.8125C17.9368 16.4062 18.056 16.3569 18.144 16.269C18.2319 16.181 18.2812 16.0618 18.2812 15.9375C18.2812 15.8132 18.2319 15.694 18.144 15.606C18.056 15.5181 17.9368 15.4688 17.8125 15.4688H6.5625C6.43818 15.4688 6.31895 15.5181 6.23104 15.606C6.14314 15.694 6.09375 15.8132 6.09375 15.9375C6.09375 16.0618 6.14314 16.181 6.23104 16.269C6.31895 16.3569 6.43818 16.4062 6.5625 16.4062ZM15 19.2188H6.5625C6.43818 19.2188 6.31895 19.2681 6.23104 19.356C6.14314 19.444 6.09375 19.5632 6.09375 19.6875C6.09375 19.8118 6.14314 19.931 6.23104 20.019C6.31895 20.1069 6.43818 20.1562 6.5625 20.1562H15C15.1243 20.1562 15.2435 20.1069 15.3315 20.019C15.4194 19.931 15.4688 19.8118 15.4688 19.6875C15.4688 19.5632 15.4194 19.444 15.3315 19.356C15.2435 19.2681 15.1243 19.2188 15 19.2188ZM14.0625 22.9688H6.5625C6.43818 22.9688 6.31895 23.0181 6.23104 23.106C6.14314 23.194 6.09375 23.3132 6.09375 23.4375C6.09375 23.5618 6.14314 23.681 6.23104 23.769C6.31895 23.8569 6.43818 23.9062 6.5625 23.9062H14.0625C14.1868 23.9062 14.306 23.8569 14.394 23.769C14.4819 23.681 14.5312 23.5618 14.5312 23.4375C14.5312 23.3132 14.4819 23.194 14.394 23.106C14.306 23.0181 14.1868 22.9688 14.0625 22.9688Z" fill="#61C3B6"/>
</svg>
