<svg width="30" height="30" viewBox="0 0 30 30" fill="none" xmlns="http://www.w3.org/2000/svg">
<path d="M16.9411 8.76178C16.0911 8.76178 15.2601 9.01391 14.5533 9.48627C13.8466 9.95863 13.2958 10.63 12.9707 11.4154C12.6456 12.2009 12.5608 13.0651 12.727 13.8988C12.8931 14.7324 13.3028 15.4981 13.9042 16.0989C14.5056 16.6997 15.2717 17.1086 16.1055 17.2739C16.9394 17.4392 17.8035 17.3534 18.5886 17.0275C19.3737 16.7016 20.0445 16.1502 20.5161 15.4429C20.9878 14.7357 21.239 13.9045 21.2382 13.0544C21.2358 11.9159 20.7822 10.8247 19.9768 10.0201C19.1713 9.21544 18.0796 8.76295 16.9411 8.76178ZM16.9411 12.6133C17.2411 12.6138 17.5314 12.7199 17.7612 12.9127C17.991 13.1056 18.1456 13.3732 18.1982 13.6685C18.2508 13.9639 18.1978 14.2683 18.0487 14.5287C17.8996 14.789 17.6637 14.9886 17.3823 15.0927V15.3883C17.3823 15.5053 17.3358 15.6175 17.2531 15.7002C17.1703 15.7829 17.0581 15.8294 16.9411 15.8294C16.8241 15.8294 16.7119 15.7829 16.6292 15.7002C16.5464 15.6175 16.4999 15.5053 16.4999 15.3883V15.0927C16.2538 15.0026 16.0411 14.8393 15.8904 14.6248C15.7398 14.4103 15.6584 14.1548 15.6573 13.8927C15.6573 13.7757 15.7038 13.6634 15.7865 13.5807C15.8692 13.498 15.9815 13.4515 16.0985 13.4515C16.2155 13.4515 16.3277 13.498 16.4104 13.5807C16.4932 13.6634 16.5396 13.7757 16.5396 13.8927C16.5338 13.9486 16.5397 14.0052 16.5571 14.0587C16.5745 14.1122 16.6029 14.1615 16.6405 14.2033C16.6782 14.2451 16.7242 14.2786 16.7756 14.3014C16.827 14.3243 16.8826 14.3362 16.9389 14.3362C16.9952 14.3362 17.0508 14.3243 17.1022 14.3014C17.1536 14.2786 17.1996 14.2451 17.2373 14.2033C17.2749 14.1615 17.3034 14.1122 17.3207 14.0587C17.3381 14.0052 17.3441 13.9486 17.3382 13.8927C17.3382 13.7874 17.2963 13.6864 17.2219 13.6119C17.1474 13.5374 17.0464 13.4956 16.9411 13.4956C16.64 13.4981 16.3477 13.3939 16.116 13.2015C15.8844 13.0091 15.7283 12.7409 15.6755 12.4444C15.6226 12.1479 15.6764 11.8423 15.8273 11.5817C15.9782 11.3211 16.2165 11.1223 16.4999 11.0206V10.725C16.4999 10.608 16.5464 10.4958 16.6292 10.4131C16.7119 10.3303 16.8241 10.2838 16.9411 10.2838C17.0581 10.2838 17.1703 10.3303 17.2531 10.4131C17.3358 10.4958 17.3823 10.608 17.3823 10.725V11.0294C17.6273 11.1194 17.8389 11.2822 17.9887 11.4959C18.1386 11.7096 18.2194 11.964 18.2205 12.225C18.2205 12.342 18.174 12.4542 18.0913 12.537C18.0086 12.6197 17.8964 12.6662 17.7794 12.6662C17.6623 12.6662 17.5501 12.6197 17.4674 12.537C17.3847 12.4542 17.3382 12.342 17.3382 12.225C17.3388 12.1727 17.3289 12.1208 17.3092 12.0724C17.2894 12.0239 17.2602 11.9799 17.2232 11.9429C17.1862 11.9059 17.1422 11.8767 17.0938 11.857C17.0453 11.8372 16.9934 11.8274 16.9411 11.828C16.8358 11.828 16.7348 11.8698 16.6604 11.9443C16.5859 12.0187 16.5441 12.1197 16.5441 12.225C16.5441 12.3303 16.5859 12.4313 16.6604 12.5058C16.7348 12.5802 16.8358 12.6221 16.9411 12.6221V12.6133ZM11.0294 12.6133H9.70582C9.58882 12.6133 9.4766 12.6597 9.39387 12.7425C9.31113 12.8252 9.26465 12.9374 9.26465 13.0544C9.26465 13.1714 9.31113 13.2836 9.39387 13.3664C9.4766 13.4491 9.58882 13.4956 9.70582 13.4956H11.0294C11.1464 13.4956 11.2586 13.4491 11.3413 13.3664C11.4241 13.2836 11.4705 13.1714 11.4705 13.0544C11.4705 12.9374 11.4241 12.8252 11.3413 12.7425C11.2586 12.6597 11.1464 12.6133 11.0294 12.6133ZM24.1676 12.6133H22.8441C22.7271 12.6133 22.6148 12.6597 22.5321 12.7425C22.4494 12.8252 22.4029 12.9374 22.4029 13.0544C22.4029 13.1714 22.4494 13.2836 22.5321 13.3664C22.6148 13.4491 22.7271 13.4956 22.8441 13.4956H24.1676C24.2846 13.4956 24.3968 13.4491 24.4795 13.3664C24.5623 13.2836 24.6088 13.1714 24.6088 13.0544C24.6088 12.9374 24.5623 12.8252 24.4795 12.7425C24.3968 12.6597 24.2846 12.6133 24.1676 12.6133Z" fill="#018A5E"/>
<path d="M27.5955 5.08844C28.0628 5.08958 28.5111 5.27557 28.8416 5.60602C29.1305 5.89508 29.3084 6.27419 29.3494 6.67731L29.3591 6.85211V19.2574C29.3591 19.7222 29.1755 20.1684 28.8484 20.4986C28.5211 20.8288 28.076 21.0169 27.6111 21.0211L27.4148 21.022L27.4128 21.2183C27.4087 21.6798 27.2241 22.1221 26.8982 22.4488C26.5723 22.7754 26.131 22.9612 25.6697 22.9664L25.4744 22.9683L25.4724 23.1636C25.4672 23.6276 25.2792 24.071 24.95 24.398C24.6208 24.7249 24.1766 24.9095 23.7126 24.9117H2.40503C1.93713 24.9106 1.48855 24.7242 1.15796 24.3931C0.827318 24.0617 0.641356 23.6122 0.641357 23.1441V10.7388C0.64237 10.2742 0.826121 9.82865 1.15308 9.4986C1.48019 9.16852 1.92472 8.98037 2.3894 8.97516L2.58472 8.97321L2.58667 8.77692C2.5919 8.31625 2.7775 7.87612 3.10327 7.55035C3.42904 7.22459 3.86917 7.03899 4.32983 7.03375L4.52612 7.0318L4.52808 6.83649C4.53328 6.37181 4.72143 5.92727 5.05151 5.60016C5.34041 5.31397 5.71771 5.13749 6.1189 5.09723L6.29175 5.08844H27.5955ZM4.32495 7.51617C3.98888 7.52166 3.66808 7.65937 3.43237 7.89899C3.19678 8.13859 3.06416 8.46139 3.06421 8.79742V21.2027C3.06421 21.5424 3.19997 21.8687 3.44019 22.1089C3.68034 22.3489 4.00593 22.4839 4.34546 22.4839H25.6541C25.9898 22.484 26.3126 22.3517 26.5515 22.1158C26.7904 21.8798 26.9263 21.559 26.9304 21.2232L26.9333 21.0211H6.29077C6.05935 21.021 5.82977 20.9749 5.61597 20.8863C5.40233 20.7977 5.20824 20.6679 5.04468 20.5045C4.71401 20.1738 4.52808 19.725 4.52808 19.2574V7.51324L4.32495 7.51617ZM9.08374 6.5943C8.91379 6.59432 8.75083 6.66167 8.63062 6.7818C8.51046 6.90195 8.44322 7.06501 8.44312 7.23492C8.44312 7.7048 8.25577 8.15555 7.92358 8.48785C7.59128 8.82016 7.1406 9.00736 6.67065 9.00739C6.50075 9.00739 6.33774 9.07483 6.21753 9.19489C6.09729 9.31513 6.02905 9.47894 6.02905 9.64899V16.4644C6.02905 16.6345 6.09729 16.7983 6.21753 16.9185C6.33774 17.0385 6.50078 17.106 6.67065 17.106C7.14052 17.106 7.59129 17.2924 7.92358 17.6246C8.2558 17.9568 8.443 18.4077 8.44312 18.8775C8.44312 19.0476 8.51037 19.2114 8.63062 19.3316C8.75082 19.4517 8.91382 19.5191 9.08374 19.5191H24.8025C24.9725 19.5191 25.1363 19.4518 25.2566 19.3316C25.3768 19.2114 25.4441 19.0476 25.4441 18.8775C25.4442 18.4077 25.6305 17.9568 25.9626 17.6246C26.295 17.2922 26.7466 17.106 27.2166 17.106C27.3864 17.1059 27.5495 17.0386 27.6697 16.9185C27.7899 16.7983 27.8572 16.6345 27.8572 16.4644V9.64899C27.8572 9.47894 27.7899 9.31513 27.6697 9.19489C27.5495 9.07478 27.3864 9.00749 27.2166 9.00739C26.7466 9.00739 26.295 8.82018 25.9626 8.48785C25.6306 8.15557 25.4441 7.70468 25.4441 7.23492C25.444 7.06505 25.3767 6.90195 25.2566 6.7818C25.1363 6.66156 24.9725 6.5943 24.8025 6.5943H9.08374Z" fill="#018A5E" stroke="#7A7A7A" stroke-width="0.4"/>
</svg>
