<svg width="32" height="32" viewBox="0 0 32 32" fill="none" xmlns="http://www.w3.org/2000/svg">
<path d="M5.84849 31C5.84849 31.5523 6.2962 32 6.84849 32H12.4242C12.9765 32 13.4242 31.5523 13.4242 31L13.4242 25C13.4242 24.4477 13.872 24 14.4242 24H16.9697C17.522 24 17.9697 24.4477 17.9697 25L17.9697 31C17.9697 31.5523 18.4174 32 18.9697 32H24.8485C25.4008 32 25.8485 31.5523 25.8485 31V20.5096C25.8485 19.9573 26.2962 19.5096 26.8485 19.5096H28.6689C29.5478 19.5096 29.9992 18.4573 29.3936 17.8205L16.8689 4.65088C16.4774 4.23929 15.8222 4.23598 15.4266 4.6436L2.64628 17.8132C2.03086 18.4473 2.48022 19.5096 3.36391 19.5096H4.84848C5.40077 19.5096 5.84849 19.9573 5.84849 20.5096V31Z" fill="#C7C7C7"/>
<path d="M30.2111 17.7393L16.7341 2.81294C16.34 2.37642 15.6561 2.37263 15.2571 2.80475L1.71783 17.4699C1.65067 17.5426 1.64851 17.6541 1.7128 17.7294C1.81303 17.8467 1.99273 17.8517 2.09936 17.7402L16.0001 3.19439L29.9774 18.1685C30.0428 18.2386 30.1546 18.2361 30.2169 18.1632C30.3217 18.0405 30.3192 17.8591 30.2111 17.7393Z" stroke="#B77306" stroke-width="3"/>
</svg>
