<svg width="32" height="32" viewBox="0 0 32 32" fill="none" xmlns="http://www.w3.org/2000/svg">
<path d="M14.1094 0.504883C17.6864 0.406962 21.1652 1.6844 23.8301 4.07422C26.495 6.46419 28.1432 9.78559 28.4365 13.3545C28.7175 16.7732 27.7338 20.1698 25.6826 22.9053L30.9307 28.1162L30.9385 28.123L31.0664 28.2695C31.346 28.6218 31.5 29.0601 31.5 29.5137C31.5 30.0322 31.2986 30.5304 30.9385 30.9033L30.9336 30.9082C30.7478 31.0956 30.5268 31.2442 30.2832 31.3457C30.0396 31.4473 29.7785 31.5 29.5146 31.5C29.2507 31.5 28.9888 31.4473 28.7451 31.3457C28.5017 31.2441 28.2804 31.0956 28.0947 30.9082V30.9072L22.8906 25.6992C20.1569 27.7529 16.7619 28.7383 13.3447 28.457C9.77835 28.1634 6.46035 26.5135 4.07227 23.8467C1.68414 21.1798 0.407006 17.6987 0.504883 14.1191C0.602776 10.5397 2.06757 7.13373 4.59766 4.60156C7.12797 2.06933 10.5322 0.602843 14.1094 0.504883ZM18.3477 5.29297C16.5216 4.53602 14.5118 4.33775 12.5732 4.72363C10.635 5.10955 8.85459 6.06241 7.45703 7.46094C6.05941 8.85962 5.10735 10.6419 4.72168 12.582C4.33604 14.5223 4.53359 16.5337 5.29004 18.3613C6.04649 20.1889 7.32822 21.7507 8.97168 22.8496C10.6151 23.9485 12.547 24.5352 14.5234 24.5352C17.1737 24.5351 19.7157 23.4819 21.5898 21.6064C23.4641 19.7308 24.5166 17.186 24.5166 14.5332C24.5165 12.5551 23.9311 10.6212 22.833 8.97656C21.7348 7.33179 20.1737 6.04993 18.3477 5.29297Z" fill="#FD9467" stroke="#FD9467"/>
</svg>
