<svg width="40" height="40" viewBox="0 0 40 40" fill="none" xmlns="http://www.w3.org/2000/svg">
<circle cx="20" cy="20" r="20" fill="#6B3E23"/>
<circle cx="20" cy="20" r="19" stroke="#6A3C21" stroke-opacity="0.95" stroke-width="2"/>
<path d="M30.5 16H9.5C9.22386 16 9 15.7761 9 15.5C9 15.2239 9.22386 15 9.5 15H30.5C30.7761 15 31 15.2239 31 15.5C31 15.7761 30.7761 16 30.5 16Z" stroke="#F3F3F3" stroke-width="1.5"/>
<path d="M30.5 21H9.5C9.22386 21 9 20.7761 9 20.5C9 20.2239 9.22386 20 9.5 20H30.5C30.7761 20 31 20.2239 31 20.5C31 20.7761 30.7761 21 30.5 21Z" stroke="#F3F3F3" stroke-width="1.5"/>
<path d="M23.5 26H9.5C9.22386 26 9 25.7761 9 25.5C9 25.2239 9.22386 25 9.5 25H23.5C23.7761 25 24 25.2239 24 25.5C24 25.7761 23.7761 26 23.5 26Z" stroke="#F3F3F3" stroke-width="1.5"/>
</svg>
