<svg width="30" height="30" viewBox="0 0 30 30" fill="none" xmlns="http://www.w3.org/2000/svg">
<path d="M10.5 13.3333C11.6867 13.3333 12.8467 12.9423 13.8334 12.2098C14.8201 11.4773 15.5892 10.4361 16.0433 9.21789C16.4974 7.99972 16.6162 6.65927 16.3847 5.36607C16.1532 4.07286 15.5818 2.88497 14.7426 1.95262C13.9035 1.02027 12.8344 0.385336 11.6705 0.128101C10.5067 -0.129134 9.30026 0.00288854 8.2039 0.507473C7.10754 1.01206 6.17047 1.86654 5.51118 2.96287C4.85189 4.0592 4.5 5.34813 4.5 6.66667C4.5 8.43478 5.13214 10.1305 6.25736 11.3807C7.38258 12.631 8.9087 13.3333 10.5 13.3333ZM22.5 16.6667C23.39 16.6667 24.26 16.3734 25.0001 15.824C25.7401 15.2746 26.3169 14.4937 26.6575 13.5801C26.9981 12.6665 27.0872 11.6611 26.9135 10.6912C26.7399 9.72131 26.3113 8.8304 25.682 8.13114C25.0526 7.43187 24.2508 6.95567 23.3779 6.76274C22.505 6.56982 21.6002 6.66883 20.7779 7.04727C19.9557 7.42571 19.2529 8.06657 18.7584 8.88882C18.2639 9.71106 18 10.6778 18 11.6667C18 12.9928 18.4741 14.2645 19.318 15.2022C20.1619 16.1399 21.3065 16.6667 22.5 16.6667ZM28.5 28.3333C28.8978 28.3333 29.2794 28.1577 29.5607 27.8452C29.842 27.5326 30 27.1087 30 26.6667C29.9988 25.109 29.6047 23.5829 28.8624 22.2615C28.1201 20.9401 27.0594 19.8763 25.8005 19.1908C24.5417 18.5053 23.1351 18.2256 21.7404 18.3833C20.3457 18.5411 19.0187 19.13 17.91 20.0833C16.4408 18.4573 14.5711 17.351 12.5367 16.904C10.5024 16.4571 8.39448 16.6895 6.47884 17.5719C4.5632 18.4543 2.92562 19.9472 1.77261 21.8624C0.619604 23.7776 0.00280529 26.0292 0 28.3333C0 28.7754 0.158035 29.1993 0.43934 29.5118C0.720644 29.8244 1.10218 30 1.5 30H19.5C19.8978 30 20.2794 29.8244 20.5607 29.5118C20.842 29.1993 21 28.7754 21 28.3333" fill="#116343"/>
</svg>
